<svg width="48" height="48" viewBox="0 0 48 48" fill="none" xmlns="http://www.w3.org/2000/svg">
<rect width="48" height="48" rx="2" fill="#EEEEEE"/>
<g clip-path="url(#clip0)">
<path d="M15.0919 27.3379L13.978 31.4961L9.90681 31.5822C8.69013 29.3255 8 26.7436 8 23.9999C8 21.3467 8.64525 18.8447 9.789 16.6416H9.78988L13.4144 17.3061L15.0021 20.9089C14.6698 21.8777 14.4887 22.9177 14.4887 23.9999C14.4888 25.1744 14.7016 26.2997 15.0919 27.3379Z" fill="#FBBB00"/>
<path d="M39.7203 21.0112C39.904 21.9791 39.9998 22.9787 39.9998 24.0002C39.9998 25.1457 39.8794 26.2631 39.6499 27.3409C38.8711 31.0086 36.8359 34.2112 34.0166 36.4776L34.0157 36.4767L29.4504 36.2438L28.8043 32.2104C30.6751 31.1132 32.1371 29.3963 32.9072 27.3409H24.3516V21.0112H33.032H39.7203Z" fill="#518EF8"/>
<path d="M34.0162 36.4763L34.0171 36.4772C31.2752 38.6811 27.792 39.9998 24.0004 39.9998C17.9072 39.9998 12.6097 36.5941 9.90723 31.5823L15.0923 27.3379C16.4435 30.944 19.9222 33.5111 24.0004 33.5111C25.7534 33.5111 27.3956 33.0372 28.8048 32.21L34.0162 36.4763Z" fill="#28B446"/>
<path d="M34.2128 11.6835L29.0295 15.927C27.5711 15.0154 25.8471 14.4888 24.0001 14.4888C19.8295 14.4888 16.2858 17.1736 15.0023 20.909L9.78994 16.6418H9.78906C12.4519 11.5077 17.8163 8 24.0001 8C27.8822 8 31.4418 9.38288 34.2128 11.6835Z" fill="#F14336"/>
</g>
<defs>
<clipPath id="clip0">
<rect x="8" y="8" width="32" height="32" fill="white"/>
</clipPath>
</defs>
</svg>
