<svg width="555" height="493" viewBox="0 0 555 493" fill="none" xmlns="http://www.w3.org/2000/svg">
<g id="svg">
<path id="background" d="M95.7797 3.5C99.2974 0 104.279 0 104.279 0H543.727C543.727 0 547.726 0 551.226 4C554.725 8 554.225 11 554.225 11V373.5C554.225 373.5 554.225 377.621 551.226 381C548.226 384.379 542.727 385 542.727 385H103.779C103.779 385 98.8245 385 95.2798 381C91.7351 377 92.2802 373.078 92.2802 373.078V11C92.2802 11 92.2621 7 95.7797 3.5Z" fill="#B6BCF0"/>
<g id="layout">
<g id="Vector" filter="url(#filter0_d)">
<path d="M363 78.7501H51.5C26.9233 78.7501 7 98.6734 7 123.25V434.75C7 459.327 26.9233 479.25 51.5 479.25H363C387.577 479.25 407.5 459.327 407.5 434.75V123.25C407.5 98.6734 387.577 78.7501 363 78.7501Z" fill="#F5F5F5"/>
<path d="M363 78.7501H51.5C26.9233 78.7501 7 98.6734 7 123.25V434.75C7 459.327 26.9233 479.25 51.5 479.25H363C387.577 479.25 407.5 459.327 407.5 434.75V123.25C407.5 98.6734 387.577 78.7501 363 78.7501Z" stroke="#303030" stroke-width="2" stroke-linecap="round" stroke-linejoin="round"/>
</g>
<path id="Vector_2" d="M7.25 157H407.75" stroke="#303030" stroke-width="2" stroke-linecap="round" stroke-linejoin="round"/>
<path id="Vector_3" d="M140.492 479L140.25 157" stroke="#303030" stroke-width="2" stroke-linecap="round" stroke-linejoin="round"/>
</g>
<g id="text">
<path id="Vector_4" d="M290.25 268H170.25" stroke="#ACACAC" stroke-width="2" stroke-linecap="round" stroke-linejoin="round"/>
<path id="Vector_5" d="M210.25 255H170.25" stroke="#ACACAC" stroke-width="2" stroke-linecap="round" stroke-linejoin="round"/>
<path id="Vector_6" d="M269.25 281H170.25" stroke="#ACACAC" stroke-width="2" stroke-linecap="round" stroke-linejoin="round"/>
<path id="Vector_7" d="M285.25 308H170.25" stroke="#ACACAC" stroke-width="2" stroke-linecap="round" stroke-linejoin="round"/>
<path id="Vector_8" d="M263.583 334H170.25" stroke="#ACACAC" stroke-width="2" stroke-linecap="round" stroke-linejoin="round"/>
<path id="Vector_9" d="M184.25 321H170.25" stroke="#ACACAC" stroke-width="2" stroke-linecap="round" stroke-linejoin="round"/>
<path id="Vector_10" d="M275.25 369H170.25" stroke="#ACACAC" stroke-width="2" stroke-linecap="round" stroke-linejoin="round"/>
<path id="Vector_11" d="M230.25 382H170.25" stroke="#ACACAC" stroke-width="2" stroke-linecap="round" stroke-linejoin="round"/>
<path id="Vector_12" d="M282.25 369H280.25" stroke="#ACACAC" stroke-width="2" stroke-linecap="round" stroke-linejoin="round"/>
<path id="Vector_13" d="M275.25 281H272.25" stroke="#ACACAC" stroke-width="2" stroke-linecap="round" stroke-linejoin="round"/>
<path id="Vector_14" d="M281.25 281H278.25" stroke="#ACACAC" stroke-width="2" stroke-linecap="round" stroke-linejoin="round"/>
<path id="Vector_15" d="M287.25 281H284.25" stroke="#ACACAC" stroke-width="2" stroke-linecap="round" stroke-linejoin="round"/>
<path id="Vector_16" d="M189.25 321H187.25" stroke="#ACACAC" stroke-width="2" stroke-linecap="round" stroke-linejoin="round"/>
<path id="Vector_17" d="M282.25 321H195.25" stroke="#ACACAC" stroke-width="2" stroke-linecap="round" stroke-linejoin="round"/>
</g>
<g id="textCloud2">
<path id="Vector 9" d="M225.236 309.5C227.88 308.034 232.739 307 232.739 307H497.106C497.106 307 515 307.97 515 324.5C515 338 497.106 341 497.106 341H256.983L234.471 363V341C234.471 341 226.63 339.72 222.927 337C218.003 333.384 216.005 329.591 216 324C215.994 317.533 218.947 312.986 225.236 309.5Z" fill="#5A979B"/>
<text id="infinitumText" fill="#EEEEEE" xml:space="preserve" style="white-space: pre" font-family="Lato" font-size="16" font-weight="500" letter-spacing="0px"><tspan x="233.25" y="329.692">Use o Infinitum onde estiver!</tspan></text>
</g>
<g id="textCloud1">
<path id="Vector 10" d="M168.384 208.92C169.926 207.794 172.759 207 172.759 207H247.449C247.449 207 257 208.834 257 221.527C257 231.893 247.449 233.107 247.449 233.107H186.893L173.769 250V233.107C173.769 233.107 169.198 232.124 167.038 230.036C164.168 227.259 163.003 224.347 163 220.054C162.996 215.088 164.718 211.596 168.384 208.92Z" fill="#9B5A78"/>
<text id="welcomeText" fill="#EEEEEE" xml:space="preserve" style="white-space: pre" font-family="Lato" font-size="16" font-weight="500" letter-spacing="0px"><tspan x="172" y="224.692">Bem vindo</tspan></text>
</g>
<g id="menu">
<path id="Vector_18" d="M376.25 179H394.25" stroke="#303030" stroke-linecap="round" stroke-linejoin="round"/>
<path id="Vector_19" d="M376.25 173H394.25" stroke="#303030" stroke-linecap="round" stroke-linejoin="round"/>
<path id="Vector_20" d="M376.25 185H394.25" stroke="#303030" stroke-linecap="round" stroke-linejoin="round"/>
</g>
<g id="layoutItem3">
<path id="Vector 6" d="M119.318 259.17C117.544 255.343 23.5718 255.343 17.0696 257.257C15.8886 261.084 15.4177 267.218 17.0696 272.565C19.4331 274.478 111.634 274.478 119.318 272.565C119.908 267.781 120.499 264.911 119.318 259.17Z" stroke="#303030"/>
<path id="Vector_21" d="M112.928 265.567L42 265" stroke="#468888" stroke-width="2" stroke-linecap="round" stroke-linejoin="round"/>
<g id="clock 1">
<path id="Vector_22" d="M27.9993 270.833C31.221 270.833 33.8327 268.222 33.8327 265C33.8327 261.778 31.221 259.167 27.9993 259.167C24.7777 259.167 22.166 261.778 22.166 265C22.166 268.222 24.7777 270.833 27.9993 270.833Z" stroke="black" stroke-width="0.75" stroke-linecap="round" stroke-linejoin="round"/>
<path id="Vector_23" d="M28 261.5V265L30.3333 266.167" stroke="black" stroke-width="0.75" stroke-linecap="round" stroke-linejoin="round"/>
</g>
</g>
<g id="layoutItem2">
<path id="Vector 6_2" d="M119.318 223.17C117.544 219.343 23.5718 219.343 17.0696 221.257C15.8886 225.084 15.4177 231.218 17.0696 236.565C19.4331 238.478 111.634 238.478 119.318 236.565C119.908 231.781 120.499 228.911 119.318 223.17Z" stroke="#303030"/>
<path id="Vector_24" d="M112.928 229.567L41 229" stroke="#884646" stroke-width="2" stroke-linecap="round" stroke-linejoin="round"/>
<g id="alert-circle 1">
<path id="Vector_25" d="M27.9994 234.833C31.221 234.833 33.8327 232.222 33.8327 229C33.8327 225.778 31.221 223.167 27.9994 223.167C24.7777 223.167 22.166 225.778 22.166 229C22.166 232.222 24.7777 234.833 27.9994 234.833Z" stroke="#303030" stroke-width="0.75" stroke-linecap="round" stroke-linejoin="round"/>
<path id="Vector_26" d="M28 226.667V229" stroke="#303030" stroke-width="0.75" stroke-linecap="round" stroke-linejoin="round"/>
<path id="Vector_27" d="M28 231.333H28.0072" stroke="#303030" stroke-width="0.75" stroke-linecap="round" stroke-linejoin="round"/>
</g>
</g>
<g id="layoutItem1">
<path id="Vector 6_3" d="M119.318 186.17C117.544 182.343 23.5718 182.343 17.0696 184.257C15.8886 188.084 15.4177 194.218 17.0696 199.565C19.4331 201.478 111.634 201.478 119.318 199.565C119.908 194.781 120.499 191.911 119.318 186.17Z" stroke="#303030"/>
<path id="Vector_28" d="M112.929 192.567L43 193" stroke="#678846" stroke-width="2" stroke-linecap="round" stroke-linejoin="round"/>
<g id="check-circle">
<path id="Vector_29" d="M33.8327 191.463V192C33.832 193.258 33.4246 194.482 32.6715 195.489C31.9183 196.497 30.8596 197.234 29.6533 197.591C28.447 197.947 27.1578 197.904 25.9778 197.469C24.7978 197.033 23.7904 196.227 23.1057 195.172C22.4211 194.116 22.0959 192.868 22.1787 191.613C22.2614 190.358 22.7477 189.163 23.565 188.207C24.3823 187.25 25.4868 186.584 26.7138 186.307C27.9408 186.03 29.2245 186.156 30.3735 186.668" stroke="#303030" stroke-width="0.75" stroke-linecap="round" stroke-linejoin="round"/>
<path id="Vector_30" d="M33.8333 187.333L28 193.172L26.25 191.422" stroke="#303030" stroke-width="0.75" stroke-linecap="round" stroke-linejoin="round"/>
</g>
</g>
<g id="Resizing buttons">
<path id="Vector 5" d="M51.25 118C51.25 113.582 54.75 110 59.25 110C63.75 110 67.25 113.5 67.25 118C67.25 122.5 63.6683 126 59.25 126C54.8317 126 51.25 122.418 51.25 118Z" fill="#303030" fill-opacity="0.8"/>
<path id="Vector 5_2" d="M75.25 118C75.25 113.582 78.75 110 83.25 110C87.75 110 91.25 113.5 91.25 118C91.25 122.5 87.6683 126 83.25 126C78.8317 126 75.25 122.418 75.25 118Z" fill="#303030" fill-opacity="0.8"/>
<path id="Vector 5_3" d="M27.25 118C27.25 113.582 30.75 110 35.25 110C39.75 110 43.25 113.5 43.25 118C43.25 122.5 39.6683 126 35.25 126C30.8317 126 27.25 122.418 27.25 118Z" fill="#303030" fill-opacity="0.8"/>
</g>
</g>
<defs>
<filter id="filter0_d" x="0" y="73.7501" width="418.5" height="418.5" filterUnits="userSpaceOnUse" color-interpolation-filters="sRGB">
<feFlood flood-opacity="0" result="BackgroundImageFix"/>
<feColorMatrix in="SourceAlpha" type="matrix" values="0 0 0 0 0 0 0 0 0 0 0 0 0 0 0 0 0 0 127 0" result="hardAlpha"/>
<feOffset dx="2" dy="4"/>
<feGaussianBlur stdDeviation="4"/>
<feComposite in2="hardAlpha" operator="out"/>
<feColorMatrix type="matrix" values="0 0 0 0 0 0 0 0 0 0 0 0 0 0 0 0 0 0 0.25 0"/>
<feBlend mode="normal" in2="BackgroundImageFix" result="effect1_dropShadow"/>
<feBlend mode="normal" in="SourceGraphic" in2="effect1_dropShadow" result="shape"/>
</filter>
</defs>
</svg>
