<svg width="494" height="434" viewBox="0 0 494 434" fill="none" xmlns="http://www.w3.org/2000/svg">
<g id="projectNotFoundSvg">
<path id="projectNotFoundSvg_background3" d="M109.238 341C90.5602 332.878 27.9856 293.62 28.5091 266.207C29.1423 233.04 29.3808 236.118 31.3584 218.826C35.59 181.829 62.2791 164 116.52 164C155.181 164 142.117 188.71 169.622 214.246C182.701 226.389 224.388 218.348 236.506 238.455C236.506 272.637 160.017 341 109.238 341Z" fill="url(#paint0_linear_2_10916)"/>
<path id="projectNotFoundSvg_background2" d="M127.505 388C98.0059 376 -0.821608 318 0.00515646 277.5C1.00516 228.5 1.38181 233.047 4.50516 207.5C11.1883 152.841 53.3399 126.499 139.006 126.5C200.066 126.5 179.432 163.007 222.872 200.733C243.529 218.673 309.368 206.794 328.506 236.5C328.506 287.001 207.703 388 127.505 388Z" fill="url(#paint1_linear_2_10916)"/>
<path id="projectNotFoundSvg_background1" d="M350.167 145.729C382.332 174.315 463.706 146.143 493.505 193.477C493.505 250.725 492.505 381.5 378.005 430C328.505 436 256.005 432 237.505 430C109.005 393 2.6671 322 0.505088 282C-0.216077 268.658 0.505088 270.5 0.505088 265C0.505088 129.5 62.716 28 205.505 0C300.58 0.000647546 282.527 85.6148 350.167 145.729Z" fill="url(#paint2_linear_2_10916)"/>
<g id="Underline">
<path id="Vector 14" d="M80.5049 424H6.50488C4.84803 424 3.50488 425.343 3.50488 427C3.50488 428.657 4.84803 430 6.50488 430H80.5049C82.1617 430 83.5049 428.657 83.5049 427C83.5049 425.343 82.1617 424 80.5049 424Z" fill="#8EAAE1" fill-opacity="0.8"/>
<path id="Vector 15" d="M324.504 424H118.504C116.847 424 115.504 425.343 115.504 427C115.504 428.657 116.847 430 118.504 430H324.504C326.161 430 327.504 428.657 327.504 427C327.504 425.343 326.161 424 324.504 424Z" fill="#8EAAE1" fill-opacity="0.8"/>
<path id="Vector 16" d="M480.506 424H361.506C359.849 424 358.506 425.343 358.506 427C358.506 428.657 359.849 430 361.506 430H480.506C482.163 430 483.506 428.657 483.506 427C483.506 425.343 482.163 424 480.506 424Z" fill="#8EAAE1" fill-opacity="0.8"/>
</g>
<g id="Project 3">
<g id="Vector 17" filter="url(#filter0_d_2_10916)">
<path d="M53 347V311C53 304.373 58.3726 299 65 299H429C435.627 299 441 304.373 441 311V347C441 353.627 435.627 359 429 359H65C58.3726 359 53 353.627 53 347Z" fill="#F4F4F4" fill-opacity="0.9" shape-rendering="crispEdges"/>
</g>
<g id="Group 84">
<g id="Group 85">
<path id="Vector 18" d="M196 317H138C135.239 317 133 319.239 133 322C133 324.761 135.239 327 138 327H196C198.761 327 201 324.761 201 322C201 319.239 198.761 317 196 317Z" fill="#4376D8" fill-opacity="0.25"/>
<path id="Vector 20" d="M414 317H388C385.239 317 383 319.239 383 322C383 324.761 385.239 327 388 327H414C416.761 327 419 324.761 419 322C419 319.239 416.761 317 414 317Z" fill="#4376D8" fill-opacity="0.05"/>
<path id="Vector 19" d="M297 334H137C134.791 334 133 335.791 133 338C133 340.209 134.791 342 137 342H297C299.209 342 301 340.209 301 338C301 335.791 299.209 334 297 334Z" fill="#4376D8" fill-opacity="0.05"/>
</g>
<g id="Vector 20_2">
<path d="M75 329C75 340.046 83.9543 349 95 349C106.046 349 115 340.046 115 329C115 317.954 106.046 309 95 309C83.9543 309 75 317.954 75 329Z" fill="#4376D8" fill-opacity="0.05"/>
<path d="M75.6648 326.452C75.7003 326.181 75.5104 325.932 75.2399 325.893C75.4608 324.477 75.8303 323.11 76.3319 321.808C76.5856 321.91 76.8745 321.789 76.9795 321.536C77.6368 319.951 78.4972 318.471 79.5285 317.129C79.6955 316.912 79.6562 316.601 79.4416 316.432C80.3303 315.333 81.333 314.33 82.4317 313.442C82.6008 313.656 82.9117 313.695 83.129 313.528C84.471 312.497 85.9507 311.637 87.5358 310.979C87.7889 310.874 87.91 310.586 87.8085 310.332C89.1098 309.83 90.4767 309.461 91.8929 309.24C91.9315 309.51 92.1807 309.7 92.4525 309.665C93.286 309.556 94.1363 309.5 95 309.5C95.8637 309.5 96.714 309.556 97.5475 309.665C97.8193 309.7 98.0685 309.51 98.1071 309.24C99.5233 309.461 100.89 309.83 102.192 310.332C102.09 310.586 102.211 310.875 102.464 310.979C104.049 311.637 105.529 312.497 106.871 313.528C107.088 313.695 107.399 313.656 107.568 313.442C108.667 314.33 109.67 315.333 110.558 316.432C110.344 316.601 110.305 316.912 110.472 317.129C111.503 318.471 112.363 319.951 113.021 321.536C113.125 321.789 113.414 321.91 113.668 321.808C114.17 323.11 114.539 324.477 114.76 325.893C114.49 325.932 114.3 326.181 114.335 326.452C114.444 327.286 114.5 328.136 114.5 329C114.5 329.864 114.444 330.714 114.335 331.548C114.3 331.819 114.49 332.068 114.76 332.107C114.539 333.523 114.17 334.89 113.668 336.192C113.414 336.09 113.125 336.211 113.021 336.464C112.363 338.049 111.503 339.529 110.472 340.871C110.305 341.088 110.344 341.399 110.558 341.568C109.67 342.667 108.667 343.67 107.568 344.558C107.399 344.344 107.088 344.305 106.871 344.472C105.529 345.503 104.049 346.363 102.464 347.021C102.211 347.125 102.09 347.414 102.192 347.668C100.89 348.17 99.5233 348.539 98.1071 348.76C98.0685 348.49 97.8193 348.3 97.5475 348.335C96.714 348.444 95.8637 348.5 95 348.5C94.1363 348.5 93.286 348.444 92.4525 348.335C92.1807 348.3 91.9315 348.49 91.8929 348.76C90.4767 348.539 89.1098 348.17 87.8085 347.668C87.91 347.414 87.7889 347.125 87.5358 347.021C85.9507 346.363 84.471 345.503 83.129 344.472C82.9117 344.305 82.6008 344.344 82.4317 344.558C81.333 343.67 80.3303 342.667 79.4416 341.568C79.6562 341.399 79.6955 341.088 79.5285 340.871C78.4972 339.529 77.6368 338.049 76.9795 336.464C76.8745 336.211 76.5856 336.09 76.3319 336.192C75.8303 334.89 75.4608 333.523 75.2399 332.107C75.5104 332.068 75.7003 331.819 75.6648 331.548C75.5561 330.714 75.5 329.864 75.5 329C75.5 328.136 75.5561 327.286 75.6648 326.452Z" stroke="#4376D8" stroke-opacity="0.25" stroke-linecap="round" stroke-dasharray="6 6"/>
</g>
</g>
</g>
<g id="Project 2">
<g id="Vector" filter="url(#filter1_d_2_10916)">
<path d="M37 257V216C37 209.373 42.3726 204 49 204H445.333C451.961 204 457.333 209.373 457.333 216V257C457.333 263.627 451.961 269 445.333 269H49C42.3726 269 37 263.627 37 257Z" fill="#F4F4F4"/>
</g>
<g id="Group 84_2">
<g id="Group 85_2">
<path id="Vector 18_2" d="M191.916 223.5H129.083C126.091 223.5 123.666 225.925 123.666 228.916C123.666 231.908 126.091 234.333 129.083 234.333H191.916C194.908 234.333 197.333 231.908 197.333 228.916C197.333 225.925 194.908 223.5 191.916 223.5Z" fill="#D85C43" fill-opacity="0.6"/>
<path id="Vector 20_3" d="M428.083 223.5H399.917C396.925 223.5 394.5 225.925 394.5 228.916C394.5 231.908 396.925 234.333 399.917 234.333H428.083C431.075 234.333 433.5 231.908 433.5 228.916C433.5 225.925 431.075 223.5 428.083 223.5Z" fill="#D85C43" fill-opacity="0.2"/>
<path id="Vector 19_2" d="M301.333 241.916H127.999C125.606 241.916 123.666 243.856 123.666 246.249C123.666 248.643 125.606 250.583 127.999 250.583H301.333C303.726 250.583 305.666 248.643 305.666 246.249C305.666 243.856 303.726 241.916 301.333 241.916Z" fill="#D85C43" fill-opacity="0.3"/>
</g>
<g id="Vector 20_4">
<path d="M60.834 236.5C60.834 248.466 70.5345 258.166 82.5007 258.166C94.4668 258.166 104.167 248.466 104.167 236.5C104.167 224.534 94.4668 214.833 82.5007 214.833C70.5345 214.833 60.834 224.534 60.834 236.5Z" fill="#D85C43" fill-opacity="0.3"/>
<path d="M61.5129 233.734C61.5484 233.463 61.3583 233.213 61.0875 233.175C61.3282 231.612 61.736 230.104 62.2919 228.67C62.5457 228.772 62.8349 228.651 62.9399 228.397C63.6534 226.677 64.5874 225.071 65.7068 223.614C65.8739 223.397 65.8345 223.086 65.6195 222.916C66.5974 221.703 67.7036 220.596 68.9174 219.619C69.0865 219.834 69.3976 219.873 69.615 219.706C71.0717 218.586 72.6779 217.652 74.3984 216.939C74.6517 216.834 74.7728 216.545 74.671 216.291C76.1049 215.735 77.6128 215.327 79.1758 215.087C79.2142 215.357 79.4635 215.547 79.7355 215.512C80.6402 215.394 81.5632 215.333 82.5007 215.333C83.4381 215.333 84.3611 215.394 85.2658 215.512C85.5378 215.547 85.7871 215.357 85.8255 215.087C87.3885 215.327 88.8964 215.735 90.3303 216.291C90.2285 216.545 90.3496 216.834 90.6029 216.939C92.3234 217.652 93.9296 218.586 95.3863 219.706C95.6037 219.873 95.9148 219.834 96.0839 219.619C97.2977 220.596 98.4039 221.703 99.3818 222.916C99.1668 223.086 99.1274 223.397 99.2945 223.614C100.414 225.071 101.348 226.677 102.061 228.397C102.166 228.651 102.456 228.772 102.709 228.67C103.265 230.104 103.673 231.612 103.914 233.175C103.643 233.213 103.453 233.463 103.488 233.734C103.606 234.639 103.667 235.562 103.667 236.5C103.667 237.437 103.606 238.36 103.488 239.265C103.453 239.537 103.643 239.786 103.914 239.825C103.673 241.388 103.265 242.895 102.709 244.329C102.456 244.227 102.166 244.349 102.061 244.602C101.348 246.322 100.414 247.929 99.2945 249.385C99.1274 249.603 99.1668 249.914 99.3818 250.083C98.4039 251.297 97.2977 252.403 96.0839 253.381C95.9148 253.166 95.6037 253.126 95.3863 253.294C93.9296 254.413 92.3234 255.347 90.6029 256.06C90.3496 256.165 90.2285 256.455 90.3303 256.708C88.8964 257.264 87.3885 257.672 85.8255 257.913C85.7871 257.642 85.5378 257.452 85.2658 257.487C84.3611 257.605 83.4381 257.666 82.5007 257.666C81.5632 257.666 80.6402 257.605 79.7355 257.487C79.4635 257.452 79.2142 257.642 79.1758 257.913C77.6128 257.672 76.1049 257.264 74.671 256.708C74.7728 256.455 74.6517 256.165 74.3984 256.06C72.6779 255.347 71.0717 254.413 69.615 253.294C69.3976 253.126 69.0865 253.166 68.9174 253.381C67.7036 252.403 66.5974 251.297 65.6195 250.083C65.8345 249.914 65.8739 249.603 65.7068 249.385C64.5874 247.929 63.6534 246.322 62.9399 244.602C62.8349 244.349 62.5457 244.227 62.2919 244.329C61.736 242.895 61.3282 241.388 61.0875 239.825C61.3583 239.786 61.5484 239.537 61.5129 239.265C61.3949 238.36 61.334 237.437 61.334 236.5C61.334 235.562 61.3949 234.639 61.5129 233.734Z" stroke="#D85C43" stroke-opacity="0.6" stroke-linecap="round" stroke-dasharray="6 6"/>
</g>
</g>
</g>
<g id="Project 1">
<g id="Vector 17_2" filter="url(#filter2_d_2_10916)">
<path d="M52.5049 167V131C52.5049 124.373 57.8775 119 64.5049 119H428.505C435.132 119 440.505 124.373 440.505 131V167C440.505 173.627 435.132 179 428.505 179H64.5049C57.8775 179 52.5049 173.627 52.5049 167Z" fill="#F4F4F4" fill-opacity="0.9" shape-rendering="crispEdges"/>
</g>
<g id="Group 84_3">
<g id="Group 85_3">
<path id="Vector 18_3" d="M195.504 137H137.504C134.742 137 132.504 139.239 132.504 142C132.504 144.761 134.742 147 137.504 147H195.504C198.265 147 200.504 144.761 200.504 142C200.504 139.239 198.265 137 195.504 137Z" fill="#4376D8" fill-opacity="0.25"/>
<path id="Vector 20_5" d="M413.504 137H387.504C384.742 137 382.504 139.239 382.504 142C382.504 144.761 384.742 147 387.504 147H413.504C416.265 147 418.504 144.761 418.504 142C418.504 139.239 416.265 137 413.504 137Z" fill="#4376D8" fill-opacity="0.05"/>
<path id="Vector 19_3" d="M296.504 154H136.504C134.295 154 132.504 155.791 132.504 158C132.504 160.209 134.295 162 136.504 162H296.504C298.713 162 300.504 160.209 300.504 158C300.504 155.791 298.713 154 296.504 154Z" fill="#4376D8" fill-opacity="0.05"/>
</g>
<g id="Vector 20_6">
<path d="M74.5039 149C74.5039 160.046 83.4582 169 94.5039 169C105.55 169 114.504 160.046 114.504 149C114.504 137.954 105.55 129 94.5039 129C83.4582 129 74.5039 137.954 74.5039 149Z" fill="#4376D8" fill-opacity="0.05"/>
<path d="M75.1688 146.452C75.2042 146.181 75.0144 145.932 74.7438 145.893C74.9647 144.477 75.3342 143.11 75.8358 141.808C76.0895 141.91 76.3784 141.789 76.4834 141.536C77.1407 139.951 78.0011 138.471 79.0324 137.129C79.1994 136.912 79.1601 136.601 78.9455 136.432C79.8342 135.333 80.8369 134.33 81.9356 133.442C82.1047 133.656 82.4156 133.695 82.6329 133.528C83.9749 132.497 85.4546 131.637 87.0397 130.979C87.2928 130.874 87.4139 130.586 87.3124 130.332C88.6137 129.83 89.9806 129.461 91.3968 129.24C91.4354 129.51 91.6846 129.7 91.9564 129.665C92.7899 129.556 93.6402 129.5 94.5039 129.5C95.3676 129.5 96.2179 129.556 97.0514 129.665C97.3232 129.7 97.5724 129.51 97.611 129.24C99.0272 129.461 100.394 129.83 101.695 130.332C101.594 130.586 101.715 130.875 101.968 130.979C103.553 131.637 105.033 132.497 106.375 133.528C106.592 133.695 106.903 133.656 107.072 133.442C108.171 134.33 109.174 135.333 110.062 136.432C109.848 136.601 109.808 136.912 109.975 137.129C111.007 138.471 111.867 139.951 112.524 141.536C112.629 141.789 112.918 141.91 113.172 141.808C113.674 143.11 114.043 144.477 114.264 145.893C113.993 145.932 113.804 146.181 113.839 146.452C113.948 147.286 114.004 148.136 114.004 149C114.004 149.864 113.948 150.714 113.839 151.548C113.804 151.819 113.993 152.068 114.264 152.107C114.043 153.523 113.674 154.89 113.172 156.192C112.918 156.09 112.629 156.211 112.524 156.464C111.867 158.049 111.007 159.529 109.975 160.871C109.808 161.088 109.848 161.399 110.062 161.568C109.174 162.667 108.171 163.67 107.072 164.558C106.903 164.344 106.592 164.305 106.375 164.472C105.033 165.503 103.553 166.363 101.968 167.021C101.715 167.125 101.594 167.414 101.695 167.668C100.394 168.17 99.0272 168.539 97.611 168.76C97.5724 168.49 97.3232 168.3 97.0514 168.335C96.2179 168.444 95.3676 168.5 94.5039 168.5C93.6402 168.5 92.7899 168.444 91.9564 168.335C91.6846 168.3 91.4354 168.49 91.3968 168.76C89.9806 168.539 88.6137 168.17 87.3124 167.668C87.4139 167.414 87.2928 167.125 87.0397 167.021C85.4546 166.363 83.9749 165.503 82.6329 164.472C82.4156 164.305 82.1047 164.344 81.9356 164.558C80.8369 163.67 79.8342 162.667 78.9455 161.568C79.1601 161.399 79.1994 161.088 79.0324 160.871C78.0011 159.529 77.1407 158.049 76.4834 156.464C76.3784 156.211 76.0895 156.09 75.8358 156.192C75.3342 154.89 74.9647 153.523 74.7438 152.107C75.0144 152.068 75.2042 151.819 75.1688 151.548C75.06 150.714 75.0039 149.864 75.0039 149C75.0039 148.136 75.06 147.286 75.1688 146.452Z" stroke="#4376D8" stroke-opacity="0.25" stroke-linecap="round" stroke-dasharray="6 6"/>
</g>
</g>
</g>
<path id="projectNotFoundSvg_circle" d="M477.506 196C483.029 196 487.506 191.523 487.506 186C487.506 180.477 483.029 176 477.506 176C471.983 176 467.506 180.477 467.506 186C467.506 191.523 471.983 196 477.506 196Z" stroke="#AC7496" stroke-width="2" stroke-linecap="round" stroke-linejoin="round"/>
<g id="projectNotFoundSvg_plus">
<path id="Vector_2" d="M318.506 57.5V78.5" stroke="#A18ED9" stroke-width="2" stroke-linecap="round" stroke-linejoin="round"/>
<path id="Vector_3" d="M308.006 68H329.006" stroke="#A18ED9" stroke-width="2" stroke-linecap="round" stroke-linejoin="round"/>
</g>
<path id="projectNotFoundSvg_square" d="M389.506 376H375.506C374.401 376 373.506 376.895 373.506 378V392C373.506 393.105 374.401 394 375.506 394H389.506C390.61 394 391.506 393.105 391.506 392V378C391.506 376.895 390.61 376 389.506 376Z" stroke="#6CA3D6" stroke-width="2" stroke-linecap="round" stroke-linejoin="round"/>
</g>
<defs>
<filter id="filter0_d_2_10916" x="49" y="295" width="404" height="76" filterUnits="userSpaceOnUse" color-interpolation-filters="sRGB">
<feFlood flood-opacity="0" result="BackgroundImageFix"/>
<feColorMatrix in="SourceAlpha" type="matrix" values="0 0 0 0 0 0 0 0 0 0 0 0 0 0 0 0 0 0 127 0" result="hardAlpha"/>
<feOffset dx="4" dy="4"/>
<feGaussianBlur stdDeviation="4"/>
<feComposite in2="hardAlpha" operator="out"/>
<feColorMatrix type="matrix" values="0 0 0 0 0 0 0 0 0 0 0 0 0 0 0 0 0 0 0.15 0"/>
<feBlend mode="normal" in2="BackgroundImageFix" result="effect1_dropShadow_2_10916"/>
<feBlend mode="normal" in="SourceGraphic" in2="effect1_dropShadow_2_10916" result="shape"/>
</filter>
<filter id="filter1_d_2_10916" x="33" y="200" width="436.334" height="81" filterUnits="userSpaceOnUse" color-interpolation-filters="sRGB">
<feFlood flood-opacity="0" result="BackgroundImageFix"/>
<feColorMatrix in="SourceAlpha" type="matrix" values="0 0 0 0 0 0 0 0 0 0 0 0 0 0 0 0 0 0 127 0" result="hardAlpha"/>
<feOffset dx="4" dy="4"/>
<feGaussianBlur stdDeviation="4"/>
<feComposite in2="hardAlpha" operator="out"/>
<feColorMatrix type="matrix" values="0 0 0 0 0 0 0 0 0 0 0 0 0 0 0 0 0 0 0.15 0"/>
<feBlend mode="normal" in2="BackgroundImageFix" result="effect1_dropShadow_2_10916"/>
<feBlend mode="normal" in="SourceGraphic" in2="effect1_dropShadow_2_10916" result="shape"/>
</filter>
<filter id="filter2_d_2_10916" x="48.5049" y="115" width="403.999" height="76" filterUnits="userSpaceOnUse" color-interpolation-filters="sRGB">
<feFlood flood-opacity="0" result="BackgroundImageFix"/>
<feColorMatrix in="SourceAlpha" type="matrix" values="0 0 0 0 0 0 0 0 0 0 0 0 0 0 0 0 0 0 127 0" result="hardAlpha"/>
<feOffset dx="4" dy="4"/>
<feGaussianBlur stdDeviation="4"/>
<feComposite in2="hardAlpha" operator="out"/>
<feColorMatrix type="matrix" values="0 0 0 0 0 0 0 0 0 0 0 0 0 0 0 0 0 0 0.15 0"/>
<feBlend mode="normal" in2="BackgroundImageFix" result="effect1_dropShadow_2_10916"/>
<feBlend mode="normal" in="SourceGraphic" in2="effect1_dropShadow_2_10916" result="shape"/>
</filter>
<linearGradient id="paint0_linear_2_10916" x1="19.3769" y1="333.28" x2="171.404" y2="154.499" gradientUnits="userSpaceOnUse">
<stop stop-color="#4376D8" stop-opacity="0.1"/>
<stop offset="1" stop-color="#4376D8" stop-opacity="0"/>
</linearGradient>
<linearGradient id="paint1_linear_2_10916" x1="-14.4179" y1="376.594" x2="207.314" y2="97.8481" gradientUnits="userSpaceOnUse">
<stop stop-color="#4376D8" stop-opacity="0.2"/>
<stop offset="1" stop-color="#4376D8" stop-opacity="0"/>
</linearGradient>
<linearGradient id="paint2_linear_2_10916" x1="-19.2998" y1="455.947" x2="335.756" y2="19.7693" gradientUnits="userSpaceOnUse">
<stop stop-color="#4376D8" stop-opacity="0.2"/>
<stop offset="1" stop-color="#4376D8" stop-opacity="0.05"/>
</linearGradient>
</defs>
</svg>
