<svg width="173" height="421" viewBox="0 0 173 421" fill="none" xmlns="http://www.w3.org/2000/svg">
<path d="M21.9499 98.1614L21.9461 98.1643L21.9423 98.1674L21.9393 98.1697L21.938 98.1707L21.9375 98.1712L21.9372 98.1714L5.83168 110.725L-53.1789 106.503L17.0416 1.99521L72.4292 115.045L43.5548 112.902L32.9892 99.3718L32.9597 99.3341L32.9268 99.2994L32.201 99.9873C32.9268 99.2994 32.9268 99.2994 32.9268 99.2993L32.9267 99.2992L32.9265 99.299L32.9259 99.2984L32.9242 99.2966L32.9185 99.2906L32.8983 99.2695C32.8811 99.2516 32.8566 99.2263 32.8262 99.1951C32.7654 99.1328 32.68 99.0465 32.5808 98.9492C32.3892 98.7615 32.12 98.5075 31.8694 98.3115C31.8248 98.2766 31.776 98.2371 31.7247 98.1956C31.6033 98.0973 31.4677 97.9876 31.3391 97.8996C31.1225 97.7514 30.8715 97.6167 30.4701 97.4234C29.4032 96.9096 28.7612 96.794 28.3093 96.7126C28.2281 96.698 28.153 96.6845 28.0827 96.6699C27.7098 96.5929 27.1651 96.5595 26.6171 96.5718C26.0617 96.5843 25.416 96.6455 24.8452 96.7973C24.4136 96.912 23.8695 97.0881 23.1709 97.428C22.7919 97.6125 22.4941 97.7899 22.2864 97.925C22.1824 97.9926 22.1006 98.0498 22.0421 98.0923C22.0331 98.0988 22.0248 98.1049 22.0169 98.1107C21.999 98.1239 21.984 98.1352 21.9718 98.1445L21.9499 98.1614Z" stroke="#555555" stroke-width="2"/>
<path d="M81.6358 278.021C88.6294 276.114 95.93 275.604 103.121 276.519C110.312 277.434 117.252 279.756 123.545 283.353C129.838 286.95 135.362 291.751 139.799 297.483C144.237 303.214 147.503 309.764 149.409 316.757C151.316 323.751 151.826 331.052 150.911 338.242C149.996 345.433 147.674 352.373 144.077 358.667C140.48 364.96 135.679 370.483 129.947 374.921C124.216 379.359 117.666 382.624 110.673 384.531C103.679 386.437 96.3784 386.948 89.1876 386.033C81.9968 385.118 75.0566 382.796 68.7633 379.199C62.4699 375.602 56.9467 370.8 52.509 365.069C48.0712 359.337 44.8058 352.788 42.8992 345.794C40.9927 338.801 40.4822 331.5 41.3971 324.309C42.312 317.118 44.6342 310.178 48.2312 303.885C51.8283 297.591 56.6296 292.068 62.3612 287.631C68.0928 283.193 74.6423 279.927 81.6359 278.021L81.6358 278.021Z" stroke="#555555" stroke-width="2"/>
<rect x="-154.597" y="236.059" width="231.786" height="231.786" rx="9" transform="rotate(-37.9393 -154.597 236.059)" stroke="#888888" stroke-width="2"/>
</svg>
