<svg width="18" height="18" viewBox="0 0 18 18" fill="none" xmlns="http://www.w3.org/2000/svg">
<path d="M15 15.75V14.25C15 13.4544 14.6839 12.6913 14.1213 12.1287C13.5587 11.5661 12.7956 11.25 12 11.25H6C5.20435 11.25 4.44129 11.5661 3.87868 12.1287C3.31607 12.6913 3 13.4544 3 14.25V15.75" stroke="#444444" stroke-width="2" stroke-linecap="round" stroke-linejoin="round"/>
<path d="M9 8.25C10.6569 8.25 12 6.90685 12 5.25C12 3.59315 10.6569 2.25 9 2.25C7.34315 2.25 6 3.59315 6 5.25C6 6.90685 7.34315 8.25 9 8.25Z" stroke="#444444" stroke-width="2" stroke-linecap="round" stroke-linejoin="round"/>
<g clip-path="url(#clip0_853:1055)">
<path d="M14.25 8.0625C14.25 8.0625 14.4375 7.875 15 7.875C15.5625 7.875 15.9375 8.25 16.5 8.25C17.0625 8.25 17.25 8.0625 17.25 8.0625V5.8125C17.25 5.8125 17.0625 6 16.5 6C15.9375 6 15.5625 5.625 15 5.625C14.4375 5.625 14.25 5.8125 14.25 5.8125V8.0625Z" stroke="#444444" stroke-linecap="round" stroke-linejoin="round"/>
<path d="M14.25 9.375V8.0625" stroke="#444444" stroke-linecap="round" stroke-linejoin="round"/>
</g>
<defs>
<clipPath id="clip0_853:1055">
<rect width="4.5" height="4.5" fill="white" transform="translate(13.5 5.25)"/>
</clipPath>
</defs>
</svg>
